# xmcd
# 
# Track frame offsets:
#     150
#     11335
#     25170
#     39490
#     52922
#     75210
#     88575
#     99245
#     110175
#     118257
# 
# Disc length: 1728
# 
# Revision: 2
# Processed by: cddbd v1.5.2PL0 Copyright (c) Steve Scherf et al.
# Submitted via: BonkEnc v1.0.6
# 
DISCID=6b06be0a
DTITLE=Gary McFarland - Soft Samba Strings
DYEAR=1966
DGENRE=Soft Jazz
TTITLE0=Full Moon and Empty Arms
TTITLE1=Skylark
TTITLE2=I Know The Meaning
TTITLE3=Manha de Carnival
TTITLE4=The Lamp is Low
TTITLE5=Reverie
TTITLE6=These are the Things I Love
TTITLE7=Theme from "13"
TTITLE8=Once We Loved
TTITLE9=Our Love
EXTD=
EXTT0=
EXTT1=
EXTT2=
EXTT3=
EXTT4=
EXTT5=
EXTT6=
EXTT7=
EXTT8=
EXTT9=
PLAYORDER=
